<svg width="20" height="20" viewBox="0 0 20 20" fill="none" xmlns="http://www.w3.org/2000/svg">
<path d="M6.9925 2.98813C10.86 2.98813 14.0044 6.1325 14.0044 10C14.0044 13.8675 10.86 16.9925 6.9925 16.9925C3.125 16.9925 0 13.8675 0 10C0 6.1325 3.125 2.98813 6.9925 2.98813ZM6.91437 5.56625C6.71875 5.80063 6.62125 6.07438 6.62125 6.36688C6.62125 6.60125 6.69937 6.79688 6.81687 6.93313C6.95375 7.07 7.14875 7.14813 7.34438 7.14813C7.61813 7.14813 7.87187 7.03063 8.06687 6.79625C8.2425 6.58125 8.34062 6.26875 8.34062 5.93688C8.34062 5.74125 8.28187 5.56563 8.145 5.42875C8.00812 5.29188 7.81312 5.21375 7.6175 5.21375C7.36375 5.21375 7.10938 5.33125 6.91437 5.56563V5.56625ZM5.13688 9.60938L5.37125 9.86313C5.54688 9.6675 5.72312 9.51125 5.84 9.41375C5.9575 9.33563 6.055 9.29625 6.13312 9.29625C6.19187 9.29625 6.25062 9.31563 6.28937 9.355C6.30875 9.41375 6.32875 9.4725 6.32875 9.57C6.32875 10.0581 6.27 10.3706 6.01625 11.5425C5.7625 12.7144 5.62563 13.5738 5.62563 14.14C5.62563 14.355 5.665 14.5113 5.74312 14.6088C5.80188 14.7063 5.91875 14.7844 6.075 14.7844C6.32875 14.7844 6.7 14.5888 7.13 14.2569C7.56 13.905 7.98938 13.4169 8.45813 12.7919L8.20438 12.5769C8.04813 12.7725 7.89188 12.9088 7.77437 13.0069C7.65688 13.085 7.55938 13.1631 7.48125 13.1631C7.4225 13.1631 7.36375 13.1044 7.325 13.0656C7.30562 13.0069 7.28562 12.9288 7.28562 12.8119C7.28562 12.7338 7.305 12.48 7.38312 12.0306C7.44187 11.5813 7.4225 11.5813 7.53937 10.9175C7.55875 10.7219 7.6175 10.4488 7.67625 10.1169C7.8325 9.12063 7.93 8.515 7.93 8.32C7.93 8.14438 7.87125 7.98813 7.8125 7.89C7.73438 7.7925 7.61687 7.75313 7.48063 7.75313C7.24625 7.75313 6.93375 7.92875 6.50375 8.24125C6.07375 8.57313 5.64438 9.0225 5.13625 9.60875L5.13688 9.60938Z" fill="#EB4817"/>
</svg>
