<svg width="12" height="22" viewBox="0 0 12 22" fill="none" xmlns="http://www.w3.org/2000/svg">
<path d="M11.4281 9.43682C11.3265 9.32554 11.2164 9.23163 11.1005 9.14995L3.34921 0.623875C2.59302 -0.207542 1.36618 -0.207937 0.609629 0.62427C-0.146922 1.45608 -0.146922 2.80521 0.609629 3.63781L7.28514 10.9809L0.575191 18.3622C-0.18136 19.194 -0.18136 20.5428 0.575191 21.3758C0.953647 21.7925 1.44976 22 1.9448 22C2.43984 22 2.93632 21.7925 3.31442 21.3758L11.1005 12.8102C11.2164 12.7286 11.3273 12.6346 11.4281 12.5234C11.8148 12.098 12.0013 11.5377 11.992 10.9801C12.0013 10.4225 11.8148 9.86259 11.4281 9.43682Z" fill="white"/>
</svg>
